# xmcd CD database file generated by Grip 3.0.5
# 
# Track frame offsets:
#       150
#       16394
#       25014
#       43278
#       52400
#       66512
#       85074
#       99064
#       118176
#       134833
#       156955
#       169527
# 
# Disc length: 2466 seconds
# 
# Revision: 2
# Processed by: cddbd v1.4PL0 Copyright (c) Steve Scherf et al.
# Submitted via: Grip 3.0.5
# 
DISCID=a609a00c
DTITLE=P J Harvey - Is This Desire?
DYEAR=1998
DGENRE=Alternative
TTITLE0=Angelene
TTITLE1=The Sky Lit Up
TTITLE2=The Wind
TTITLE3=My Beautiful Leah
TTITLE4=A Perfect Day, Elise
TTITLE5=Catherine
TTITLE6=Electric Light
TTITLE7=The Garden
TTITLE8=Joy
TTITLE9=The River
TTITLE10=No Girl So Sweet
TTITLE11=Is This Desire?
EXTD=YEAR: 1998
EXTT0=
EXTT1=
EXTT2=
EXTT3=
EXTT4=
EXTT5=
EXTT6=
EXTT7=
EXTT8=
EXTT9=
EXTT10=
EXTT11=
PLAYORDER=
